<?xml version="1.0" encoding="utf-8" standalone="no"?>
<!DOCTYPE svg PUBLIC "-//W3C//DTD SVG 1.1//EN"
  "http://www.w3.org/Graphics/SVG/1.1/DTD/svg11.dtd">
<!-- Created with matplotlib (https://matplotlib.org/) -->
<svg height="619.712305pt" version="1.1" viewBox="0 0 535.25 619.712305" width="535.25pt" xmlns="http://www.w3.org/2000/svg" xmlns:xlink="http://www.w3.org/1999/xlink">
 <metadata>
  <rdf:RDF xmlns:cc="http://creativecommons.org/ns#" xmlns:dc="http://purl.org/dc/elements/1.1/" xmlns:rdf="http://www.w3.org/1999/02/22-rdf-syntax-ns#">
   <cc:Work>
    <dc:type rdf:resource="http://purl.org/dc/dcmitype/StillImage"/>
    <dc:date>2021-09-12T21:12:10.820623</dc:date>
    <dc:format>image/svg+xml</dc:format>
    <dc:creator>
     <cc:Agent>
      <dc:title>Matplotlib v3.3.4, https://matplotlib.org/</dc:title>
     </cc:Agent>
    </dc:creator>
   </cc:Work>
  </rdf:RDF>
 </metadata>
 <defs>
  <style type="text/css">*{stroke-linecap:butt;stroke-linejoin:round;}</style>
 </defs>
 <g id="figure_1">
  <g id="patch_1">
   <path d="M 0 619.712305 
L 535.25 619.712305 
L 535.25 0 
L 0 0 
z
" style="fill:none;"/>
  </g>
  <g id="axes_1">
   <g id="patch_2">
    <path d="M 193.25 566.719531 
L 528.05 566.719531 
L 528.05 23.119531 
L 193.25 23.119531 
z
" style="fill:#ffffff;"/>
   </g>
   <g id="matplotlib.axis_1">
    <g id="xtick_1">
     <g id="line2d_1">
      <path clip-path="url(#p6c7bc4d2b2)" d="M 194.051807 566.719531 
L 194.051807 23.119531 
" style="fill:none;stroke:#cccccc;stroke-linecap:round;"/>
     </g>
     <g id="text_1">
      <!-- 100 -->
      <g style="fill:#262626;" transform="translate(182.582373 586.061523)scale(0.1375 -0.1375)">
       <defs>
        <path d="M 37.25 0 
L 28.46875 0 
L 28.46875 56 
Q 25.296875 52.984375 20.140625 49.953125 
Q 14.984375 46.921875 10.890625 45.40625 
L 10.890625 53.90625 
Q 18.265625 57.375 23.78125 62.296875 
Q 29.296875 67.234375 31.59375 71.875 
L 37.25 71.875 
z
" id="ArialMT-49"/>
        <path d="M 4.15625 35.296875 
Q 4.15625 48 6.765625 55.734375 
Q 9.375 63.484375 14.515625 67.671875 
Q 19.671875 71.875 27.484375 71.875 
Q 33.25 71.875 37.59375 69.546875 
Q 41.9375 67.234375 44.765625 62.859375 
Q 47.609375 58.5 49.21875 52.21875 
Q 50.828125 45.953125 50.828125 35.296875 
Q 50.828125 22.703125 48.234375 14.96875 
Q 45.65625 7.234375 40.5 3 
Q 35.359375 -1.21875 27.484375 -1.21875 
Q 17.140625 -1.21875 11.234375 6.203125 
Q 4.15625 15.140625 4.15625 35.296875 
z
M 13.1875 35.296875 
Q 13.1875 17.671875 17.3125 11.828125 
Q 21.4375 6 27.484375 6 
Q 33.546875 6 37.671875 11.859375 
Q 41.796875 17.71875 41.796875 35.296875 
Q 41.796875 52.984375 37.671875 58.78125 
Q 33.546875 64.59375 27.390625 64.59375 
Q 21.34375 64.59375 17.71875 59.46875 
Q 13.1875 52.9375 13.1875 35.296875 
z
" id="ArialMT-48"/>
       </defs>
       <use xlink:href="#ArialMT-49"/>
       <use x="55.615234" xlink:href="#ArialMT-48"/>
       <use x="111.230469" xlink:href="#ArialMT-48"/>
      </g>
     </g>
    </g>
    <g id="xtick_2">
     <g id="line2d_2">
      <path clip-path="url(#p6c7bc4d2b2)" d="M 292.707586 566.719531 
L 292.707586 23.119531 
" style="fill:none;stroke:#cccccc;stroke-linecap:round;"/>
     </g>
     <g id="text_2">
      <!-- 1K -->
      <g style="fill:#262626;" transform="translate(284.298601 586.061523)scale(0.1375 -0.1375)">
       <defs>
        <path d="M 7.328125 0 
L 7.328125 71.578125 
L 16.796875 71.578125 
L 16.796875 36.078125 
L 52.34375 71.578125 
L 65.1875 71.578125 
L 35.15625 42.578125 
L 66.5 0 
L 54 0 
L 28.515625 36.234375 
L 16.796875 24.8125 
L 16.796875 0 
z
" id="ArialMT-75"/>
       </defs>
       <use xlink:href="#ArialMT-49"/>
       <use x="55.615234" xlink:href="#ArialMT-75"/>
      </g>
     </g>
    </g>
    <g id="xtick_3">
     <g id="line2d_3">
      <path clip-path="url(#p6c7bc4d2b2)" d="M 391.363365 566.719531 
L 391.363365 23.119531 
" style="fill:none;stroke:#cccccc;stroke-linecap:round;"/>
     </g>
     <g id="text_3">
      <!-- 10K -->
      <g style="fill:#262626;" transform="translate(379.131236 586.061523)scale(0.1375 -0.1375)">
       <use xlink:href="#ArialMT-49"/>
       <use x="55.615234" xlink:href="#ArialMT-48"/>
       <use x="111.230469" xlink:href="#ArialMT-75"/>
      </g>
     </g>
    </g>
    <g id="xtick_4">
     <g id="line2d_4">
      <path clip-path="url(#p6c7bc4d2b2)" d="M 490.019144 566.719531 
L 490.019144 23.119531 
" style="fill:none;stroke:#cccccc;stroke-linecap:round;"/>
     </g>
     <g id="text_4">
      <!-- 100K -->
      <g style="fill:#262626;" transform="translate(473.963871 586.061523)scale(0.1375 -0.1375)">
       <use xlink:href="#ArialMT-49"/>
       <use x="55.615234" xlink:href="#ArialMT-48"/>
       <use x="111.230469" xlink:href="#ArialMT-48"/>
       <use x="166.845703" xlink:href="#ArialMT-75"/>
      </g>
     </g>
    </g>
    <g id="xtick_5"/>
    <g id="xtick_6"/>
    <g id="xtick_7"/>
    <g id="xtick_8"/>
    <g id="xtick_9"/>
    <g id="xtick_10"/>
    <g id="xtick_11"/>
    <g id="xtick_12"/>
    <g id="xtick_13"/>
    <g id="xtick_14"/>
    <g id="xtick_15"/>
    <g id="xtick_16"/>
    <g id="xtick_17"/>
    <g id="xtick_18"/>
    <g id="xtick_19"/>
    <g id="xtick_20"/>
    <g id="xtick_21"/>
    <g id="xtick_22"/>
    <g id="xtick_23"/>
    <g id="xtick_24"/>
    <g id="xtick_25"/>
    <g id="xtick_26"/>
    <g id="xtick_27"/>
    <g id="xtick_28"/>
    <g id="xtick_29"/>
    <g id="text_5">
     <!-- Count -->
     <g style="fill:#262626;" transform="translate(340.637891 609.531055)scale(0.15 -0.15)">
      <defs>
       <path d="M 58.796875 25.09375 
L 68.265625 22.703125 
Q 65.28125 11.03125 57.546875 4.90625 
Q 49.8125 -1.21875 38.625 -1.21875 
Q 27.046875 -1.21875 19.796875 3.484375 
Q 12.546875 8.203125 8.765625 17.140625 
Q 4.984375 26.078125 4.984375 36.328125 
Q 4.984375 47.515625 9.25 55.828125 
Q 13.53125 64.15625 21.40625 68.46875 
Q 29.296875 72.796875 38.765625 72.796875 
Q 49.515625 72.796875 56.828125 67.328125 
Q 64.15625 61.859375 67.046875 51.953125 
L 57.71875 49.75 
Q 55.21875 57.5625 50.484375 61.125 
Q 45.75 64.703125 38.578125 64.703125 
Q 30.328125 64.703125 24.78125 60.734375 
Q 19.234375 56.78125 16.984375 50.109375 
Q 14.75 43.453125 14.75 36.375 
Q 14.75 27.25 17.40625 20.4375 
Q 20.0625 13.625 25.671875 10.25 
Q 31.296875 6.890625 37.84375 6.890625 
Q 45.796875 6.890625 51.3125 11.46875 
Q 56.84375 16.0625 58.796875 25.09375 
z
" id="ArialMT-67"/>
       <path d="M 3.328125 25.921875 
Q 3.328125 40.328125 11.328125 47.265625 
Q 18.015625 53.03125 27.640625 53.03125 
Q 38.328125 53.03125 45.109375 46.015625 
Q 51.90625 39.015625 51.90625 26.65625 
Q 51.90625 16.65625 48.90625 10.90625 
Q 45.90625 5.171875 40.15625 2 
Q 34.421875 -1.171875 27.640625 -1.171875 
Q 16.75 -1.171875 10.03125 5.8125 
Q 3.328125 12.796875 3.328125 25.921875 
z
M 12.359375 25.921875 
Q 12.359375 15.96875 16.703125 11.015625 
Q 21.046875 6.0625 27.640625 6.0625 
Q 34.1875 6.0625 38.53125 11.03125 
Q 42.875 16.015625 42.875 26.21875 
Q 42.875 35.84375 38.5 40.796875 
Q 34.125 45.75 27.640625 45.75 
Q 21.046875 45.75 16.703125 40.8125 
Q 12.359375 35.890625 12.359375 25.921875 
z
" id="ArialMT-111"/>
       <path d="M 40.578125 0 
L 40.578125 7.625 
Q 34.515625 -1.171875 24.125 -1.171875 
Q 19.53125 -1.171875 15.546875 0.578125 
Q 11.578125 2.34375 9.640625 5 
Q 7.71875 7.671875 6.9375 11.53125 
Q 6.390625 14.109375 6.390625 19.734375 
L 6.390625 51.859375 
L 15.1875 51.859375 
L 15.1875 23.09375 
Q 15.1875 16.21875 15.71875 13.8125 
Q 16.546875 10.359375 19.234375 8.375 
Q 21.921875 6.390625 25.875 6.390625 
Q 29.828125 6.390625 33.296875 8.421875 
Q 36.765625 10.453125 38.203125 13.9375 
Q 39.65625 17.4375 39.65625 24.078125 
L 39.65625 51.859375 
L 48.4375 51.859375 
L 48.4375 0 
z
" id="ArialMT-117"/>
       <path d="M 6.59375 0 
L 6.59375 51.859375 
L 14.5 51.859375 
L 14.5 44.484375 
Q 20.21875 53.03125 31 53.03125 
Q 35.6875 53.03125 39.625 51.34375 
Q 43.5625 49.65625 45.515625 46.921875 
Q 47.46875 44.1875 48.25 40.4375 
Q 48.734375 37.984375 48.734375 31.890625 
L 48.734375 0 
L 39.9375 0 
L 39.9375 31.546875 
Q 39.9375 36.921875 38.90625 39.578125 
Q 37.890625 42.234375 35.28125 43.8125 
Q 32.671875 45.40625 29.15625 45.40625 
Q 23.53125 45.40625 19.453125 41.84375 
Q 15.375 38.28125 15.375 28.328125 
L 15.375 0 
z
" id="ArialMT-110"/>
       <path d="M 25.78125 7.859375 
L 27.046875 0.09375 
Q 23.34375 -0.6875 20.40625 -0.6875 
Q 15.625 -0.6875 12.984375 0.828125 
Q 10.359375 2.34375 9.28125 4.8125 
Q 8.203125 7.28125 8.203125 15.1875 
L 8.203125 45.015625 
L 1.765625 45.015625 
L 1.765625 51.859375 
L 8.203125 51.859375 
L 8.203125 64.703125 
L 16.9375 69.96875 
L 16.9375 51.859375 
L 25.78125 51.859375 
L 25.78125 45.015625 
L 16.9375 45.015625 
L 16.9375 14.703125 
Q 16.9375 10.9375 17.40625 9.859375 
Q 17.875 8.796875 18.921875 8.15625 
Q 19.96875 7.515625 21.921875 7.515625 
Q 23.390625 7.515625 25.78125 7.859375 
z
" id="ArialMT-116"/>
      </defs>
      <use xlink:href="#ArialMT-67"/>
      <use x="72.216797" xlink:href="#ArialMT-111"/>
      <use x="127.832031" xlink:href="#ArialMT-117"/>
      <use x="183.447266" xlink:href="#ArialMT-110"/>
      <use x="239.0625" xlink:href="#ArialMT-116"/>
     </g>
    </g>
   </g>
   <g id="matplotlib.axis_2">
    <g id="ytick_1">
     <g id="text_6">
      <!-- amazon home -->
      <g style="fill:#262626;" transform="translate(96.624414 35.590527)scale(0.1375 -0.1375)">
       <defs>
        <path d="M 40.4375 6.390625 
Q 35.546875 2.25 31.03125 0.53125 
Q 26.515625 -1.171875 21.34375 -1.171875 
Q 12.796875 -1.171875 8.203125 3 
Q 3.609375 7.171875 3.609375 13.671875 
Q 3.609375 17.484375 5.34375 20.625 
Q 7.078125 23.78125 9.890625 25.6875 
Q 12.703125 27.59375 16.21875 28.5625 
Q 18.796875 29.25 24.03125 29.890625 
Q 34.671875 31.15625 39.703125 32.90625 
Q 39.75 34.71875 39.75 35.203125 
Q 39.75 40.578125 37.25 42.78125 
Q 33.890625 45.75 27.25 45.75 
Q 21.046875 45.75 18.09375 43.578125 
Q 15.140625 41.40625 13.71875 35.890625 
L 5.125 37.0625 
Q 6.296875 42.578125 8.984375 45.96875 
Q 11.671875 49.359375 16.75 51.1875 
Q 21.828125 53.03125 28.515625 53.03125 
Q 35.15625 53.03125 39.296875 51.46875 
Q 43.453125 49.90625 45.40625 47.53125 
Q 47.359375 45.171875 48.140625 41.546875 
Q 48.578125 39.3125 48.578125 33.453125 
L 48.578125 21.734375 
Q 48.578125 9.46875 49.140625 6.21875 
Q 49.703125 2.984375 51.375 0 
L 42.1875 0 
Q 40.828125 2.734375 40.4375 6.390625 
z
M 39.703125 26.03125 
Q 34.90625 24.078125 25.34375 22.703125 
Q 19.921875 21.921875 17.671875 20.9375 
Q 15.4375 19.96875 14.203125 18.09375 
Q 12.984375 16.21875 12.984375 13.921875 
Q 12.984375 10.40625 15.640625 8.0625 
Q 18.3125 5.71875 23.4375 5.71875 
Q 28.515625 5.71875 32.46875 7.9375 
Q 36.421875 10.15625 38.28125 14.015625 
Q 39.703125 17 39.703125 22.796875 
z
" id="ArialMT-97"/>
        <path d="M 6.59375 0 
L 6.59375 51.859375 
L 14.453125 51.859375 
L 14.453125 44.578125 
Q 16.890625 48.390625 20.9375 50.703125 
Q 25 53.03125 30.171875 53.03125 
Q 35.9375 53.03125 39.625 50.640625 
Q 43.3125 48.25 44.828125 43.953125 
Q 50.984375 53.03125 60.84375 53.03125 
Q 68.5625 53.03125 72.703125 48.75 
Q 76.859375 44.484375 76.859375 35.59375 
L 76.859375 0 
L 68.109375 0 
L 68.109375 32.671875 
Q 68.109375 37.9375 67.25 40.25 
Q 66.40625 42.578125 64.15625 43.984375 
Q 61.921875 45.40625 58.890625 45.40625 
Q 53.421875 45.40625 49.796875 41.765625 
Q 46.1875 38.140625 46.1875 30.125 
L 46.1875 0 
L 37.40625 0 
L 37.40625 33.6875 
Q 37.40625 39.546875 35.25 42.46875 
Q 33.109375 45.40625 28.21875 45.40625 
Q 24.515625 45.40625 21.359375 43.453125 
Q 18.21875 41.5 16.796875 37.734375 
Q 15.375 33.984375 15.375 26.90625 
L 15.375 0 
z
" id="ArialMT-109"/>
        <path d="M 1.953125 0 
L 1.953125 7.125 
L 34.96875 45.015625 
Q 29.34375 44.734375 25.046875 44.734375 
L 3.90625 44.734375 
L 3.90625 51.859375 
L 46.296875 51.859375 
L 46.296875 46.046875 
L 18.21875 13.140625 
L 12.796875 7.125 
Q 18.703125 7.5625 23.875 7.5625 
L 47.859375 7.5625 
L 47.859375 0 
z
" id="ArialMT-122"/>
        <path id="ArialMT-32"/>
        <path d="M 6.59375 0 
L 6.59375 71.578125 
L 15.375 71.578125 
L 15.375 45.90625 
Q 21.53125 53.03125 30.90625 53.03125 
Q 36.671875 53.03125 40.921875 50.75 
Q 45.171875 48.484375 47 44.484375 
Q 48.828125 40.484375 48.828125 32.859375 
L 48.828125 0 
L 40.046875 0 
L 40.046875 32.859375 
Q 40.046875 39.453125 37.1875 42.453125 
Q 34.328125 45.453125 29.109375 45.453125 
Q 25.203125 45.453125 21.75 43.421875 
Q 18.3125 41.40625 16.84375 37.9375 
Q 15.375 34.46875 15.375 28.375 
L 15.375 0 
z
" id="ArialMT-104"/>
        <path d="M 42.09375 16.703125 
L 51.171875 15.578125 
Q 49.03125 7.625 43.21875 3.21875 
Q 37.40625 -1.171875 28.375 -1.171875 
Q 17 -1.171875 10.328125 5.828125 
Q 3.65625 12.84375 3.65625 25.484375 
Q 3.65625 38.578125 10.390625 45.796875 
Q 17.140625 53.03125 27.875 53.03125 
Q 38.28125 53.03125 44.875 45.953125 
Q 51.46875 38.875 51.46875 26.03125 
Q 51.46875 25.25 51.421875 23.6875 
L 12.75 23.6875 
Q 13.234375 15.140625 17.578125 10.59375 
Q 21.921875 6.0625 28.421875 6.0625 
Q 33.25 6.0625 36.671875 8.59375 
Q 40.09375 11.140625 42.09375 16.703125 
z
M 13.234375 30.90625 
L 42.1875 30.90625 
Q 41.609375 37.453125 38.875 40.71875 
Q 34.671875 45.796875 27.984375 45.796875 
Q 21.921875 45.796875 17.796875 41.75 
Q 13.671875 37.703125 13.234375 30.90625 
z
" id="ArialMT-101"/>
       </defs>
       <use xlink:href="#ArialMT-97"/>
       <use x="55.615234" xlink:href="#ArialMT-109"/>
       <use x="138.916016" xlink:href="#ArialMT-97"/>
       <use x="194.53125" xlink:href="#ArialMT-122"/>
       <use x="244.53125" xlink:href="#ArialMT-111"/>
       <use x="300.146484" xlink:href="#ArialMT-110"/>
       <use x="355.761719" xlink:href="#ArialMT-32"/>
       <use x="383.544922" xlink:href="#ArialMT-104"/>
       <use x="439.160156" xlink:href="#ArialMT-111"/>
       <use x="494.775391" xlink:href="#ArialMT-109"/>
       <use x="578.076172" xlink:href="#ArialMT-101"/>
      </g>
     </g>
    </g>
    <g id="ytick_2">
     <g id="text_7">
      <!-- books -->
      <g style="fill:#262626;" transform="translate(147.061133 50.690527)scale(0.1375 -0.1375)">
       <defs>
        <path d="M 14.703125 0 
L 6.546875 0 
L 6.546875 71.578125 
L 15.328125 71.578125 
L 15.328125 46.046875 
Q 20.90625 53.03125 29.546875 53.03125 
Q 34.328125 53.03125 38.59375 51.09375 
Q 42.875 49.171875 45.625 45.671875 
Q 48.390625 42.1875 49.953125 37.25 
Q 51.515625 32.328125 51.515625 26.703125 
Q 51.515625 13.375 44.921875 6.09375 
Q 38.328125 -1.171875 29.109375 -1.171875 
Q 19.921875 -1.171875 14.703125 6.5 
z
M 14.59375 26.3125 
Q 14.59375 17 17.140625 12.84375 
Q 21.296875 6.0625 28.375 6.0625 
Q 34.125 6.0625 38.328125 11.0625 
Q 42.53125 16.0625 42.53125 25.984375 
Q 42.53125 36.140625 38.5 40.96875 
Q 34.46875 45.796875 28.765625 45.796875 
Q 23 45.796875 18.796875 40.796875 
Q 14.59375 35.796875 14.59375 26.3125 
z
" id="ArialMT-98"/>
        <path d="M 6.640625 0 
L 6.640625 71.578125 
L 15.4375 71.578125 
L 15.4375 30.765625 
L 36.234375 51.859375 
L 47.609375 51.859375 
L 27.78125 32.625 
L 49.609375 0 
L 38.765625 0 
L 21.625 26.515625 
L 15.4375 20.5625 
L 15.4375 0 
z
" id="ArialMT-107"/>
        <path d="M 3.078125 15.484375 
L 11.765625 16.84375 
Q 12.5 11.625 15.84375 8.84375 
Q 19.1875 6.0625 25.203125 6.0625 
Q 31.25 6.0625 34.171875 8.515625 
Q 37.109375 10.984375 37.109375 14.3125 
Q 37.109375 17.28125 34.515625 19 
Q 32.71875 20.171875 25.53125 21.96875 
Q 15.875 24.421875 12.140625 26.203125 
Q 8.40625 27.984375 6.46875 31.125 
Q 4.546875 34.28125 4.546875 38.09375 
Q 4.546875 41.546875 6.125 44.5 
Q 7.71875 47.46875 10.453125 49.421875 
Q 12.5 50.921875 16.03125 51.96875 
Q 19.578125 53.03125 23.640625 53.03125 
Q 29.734375 53.03125 34.34375 51.265625 
Q 38.96875 49.515625 41.15625 46.5 
Q 43.359375 43.5 44.1875 38.484375 
L 35.59375 37.3125 
Q 35.015625 41.3125 32.203125 43.546875 
Q 29.390625 45.796875 24.265625 45.796875 
Q 18.21875 45.796875 15.625 43.796875 
Q 13.03125 41.796875 13.03125 39.109375 
Q 13.03125 37.40625 14.109375 36.03125 
Q 15.1875 34.625 17.484375 33.6875 
Q 18.796875 33.203125 25.25 31.453125 
Q 34.578125 28.953125 38.25 27.359375 
Q 41.9375 25.78125 44.03125 22.75 
Q 46.140625 19.734375 46.140625 15.234375 
Q 46.140625 10.84375 43.578125 6.953125 
Q 41.015625 3.078125 36.171875 0.953125 
Q 31.34375 -1.171875 25.25 -1.171875 
Q 15.140625 -1.171875 9.84375 3.03125 
Q 4.546875 7.234375 3.078125 15.484375 
z
" id="ArialMT-115"/>
       </defs>
       <use xlink:href="#ArialMT-98"/>
       <use x="55.615234" xlink:href="#ArialMT-111"/>
       <use x="111.230469" xlink:href="#ArialMT-111"/>
       <use x="166.845703" xlink:href="#ArialMT-107"/>
       <use x="216.845703" xlink:href="#ArialMT-115"/>
      </g>
     </g>
    </g>
    <g id="ytick_3">
     <g id="text_8">
      <!-- amazon fashion -->
      <g style="fill:#262626;" transform="translate(86.681445 65.790527)scale(0.1375 -0.1375)">
       <defs>
        <path d="M 8.6875 0 
L 8.6875 45.015625 
L 0.921875 45.015625 
L 0.921875 51.859375 
L 8.6875 51.859375 
L 8.6875 57.375 
Q 8.6875 62.59375 9.625 65.140625 
Q 10.890625 68.5625 14.078125 70.671875 
Q 17.28125 72.796875 23.046875 72.796875 
Q 26.765625 72.796875 31.25 71.921875 
L 29.9375 64.265625 
Q 27.203125 64.75 24.75 64.75 
Q 20.75 64.75 19.09375 63.03125 
Q 17.4375 61.328125 17.4375 56.640625 
L 17.4375 51.859375 
L 27.546875 51.859375 
L 27.546875 45.015625 
L 17.4375 45.015625 
L 17.4375 0 
z
" id="ArialMT-102"/>
        <path d="M 6.640625 61.46875 
L 6.640625 71.578125 
L 15.4375 71.578125 
L 15.4375 61.46875 
z
M 6.640625 0 
L 6.640625 51.859375 
L 15.4375 51.859375 
L 15.4375 0 
z
" id="ArialMT-105"/>
       </defs>
       <use xlink:href="#ArialMT-97"/>
       <use x="55.615234" xlink:href="#ArialMT-109"/>
       <use x="138.916016" xlink:href="#ArialMT-97"/>
       <use x="194.53125" xlink:href="#ArialMT-122"/>
       <use x="244.53125" xlink:href="#ArialMT-111"/>
       <use x="300.146484" xlink:href="#ArialMT-110"/>
       <use x="355.761719" xlink:href="#ArialMT-32"/>
       <use x="383.544922" xlink:href="#ArialMT-102"/>
       <use x="411.328125" xlink:href="#ArialMT-97"/>
       <use x="466.943359" xlink:href="#ArialMT-115"/>
       <use x="516.943359" xlink:href="#ArialMT-104"/>
       <use x="572.558594" xlink:href="#ArialMT-105"/>
       <use x="594.775391" xlink:href="#ArialMT-111"/>
       <use x="650.390625" xlink:href="#ArialMT-110"/>
      </g>
     </g>
    </g>
    <g id="ytick_4">
     <g id="text_9">
      <!-- toys &amp; games -->
      <g style="fill:#262626;" transform="translate(100.455078 80.974316)scale(0.1375 -0.1375)">
       <defs>
        <path d="M 6.203125 -19.96875 
L 5.21875 -11.71875 
Q 8.109375 -12.5 10.25 -12.5 
Q 13.1875 -12.5 14.9375 -11.515625 
Q 16.703125 -10.546875 17.828125 -8.796875 
Q 18.65625 -7.46875 20.515625 -2.25 
Q 20.75 -1.515625 21.296875 -0.09375 
L 1.609375 51.859375 
L 11.078125 51.859375 
L 21.875 21.828125 
Q 23.96875 16.109375 25.640625 9.8125 
Q 27.15625 15.875 29.25 21.625 
L 40.328125 51.859375 
L 49.125 51.859375 
L 29.390625 -0.875 
Q 26.21875 -9.421875 24.46875 -12.640625 
Q 22.125 -17 19.09375 -19.015625 
Q 16.0625 -21.046875 11.859375 -21.046875 
Q 9.328125 -21.046875 6.203125 -19.96875 
z
" id="ArialMT-121"/>
        <path d="M 47.515625 8.453125 
Q 43.171875 3.609375 38.03125 1.1875 
Q 32.90625 -1.21875 26.953125 -1.21875 
Q 15.96875 -1.21875 9.515625 6.203125 
Q 4.296875 12.25 4.296875 19.734375 
Q 4.296875 26.375 8.5625 31.71875 
Q 12.84375 37.0625 21.34375 41.109375 
Q 16.5 46.6875 14.890625 50.140625 
Q 13.28125 53.609375 13.28125 56.84375 
Q 13.28125 63.28125 18.328125 68.03125 
Q 23.390625 72.796875 31.0625 72.796875 
Q 38.375 72.796875 43.03125 68.296875 
Q 47.703125 63.8125 47.703125 57.515625 
Q 47.703125 47.3125 34.1875 40.09375 
L 47.015625 23.734375 
Q 49.21875 28.03125 50.4375 33.6875 
L 59.578125 31.734375 
Q 57.234375 22.359375 53.21875 16.3125 
Q 58.15625 9.765625 64.40625 5.328125 
L 58.5 -1.65625 
Q 53.171875 1.765625 47.515625 8.453125 
z
M 29.640625 45.75 
Q 35.359375 49.125 37.03125 51.65625 
Q 38.71875 54.203125 38.71875 57.28125 
Q 38.71875 60.9375 36.390625 63.25 
Q 34.078125 65.578125 30.609375 65.578125 
Q 27.046875 65.578125 24.671875 63.28125 
Q 22.3125 60.984375 22.3125 57.671875 
Q 22.3125 56 23.171875 54.171875 
Q 24.03125 52.34375 25.734375 50.296875 
z
M 42 15.375 
L 25.875 35.359375 
Q 18.75 31.109375 16.25 27.46875 
Q 13.765625 23.828125 13.765625 20.265625 
Q 13.765625 15.921875 17.234375 11.234375 
Q 20.703125 6.546875 27.046875 6.546875 
Q 31 6.546875 35.21875 9 
Q 39.453125 11.46875 42 15.375 
z
" id="ArialMT-38"/>
        <path d="M 4.984375 -4.296875 
L 13.53125 -5.5625 
Q 14.0625 -9.515625 16.5 -11.328125 
Q 19.78125 -13.765625 25.4375 -13.765625 
Q 31.546875 -13.765625 34.859375 -11.328125 
Q 38.1875 -8.890625 39.359375 -4.5 
Q 40.046875 -1.8125 39.984375 6.78125 
Q 34.234375 0 25.640625 0 
Q 14.9375 0 9.078125 7.71875 
Q 3.21875 15.4375 3.21875 26.21875 
Q 3.21875 33.640625 5.90625 39.90625 
Q 8.59375 46.1875 13.6875 49.609375 
Q 18.796875 53.03125 25.6875 53.03125 
Q 34.859375 53.03125 40.828125 45.609375 
L 40.828125 51.859375 
L 48.921875 51.859375 
L 48.921875 7.03125 
Q 48.921875 -5.078125 46.453125 -10.125 
Q 44 -15.1875 38.640625 -18.109375 
Q 33.296875 -21.046875 25.484375 -21.046875 
Q 16.21875 -21.046875 10.5 -16.875 
Q 4.78125 -12.703125 4.984375 -4.296875 
z
M 12.25 26.859375 
Q 12.25 16.65625 16.296875 11.96875 
Q 20.359375 7.28125 26.46875 7.28125 
Q 32.515625 7.28125 36.609375 11.9375 
Q 40.71875 16.609375 40.71875 26.5625 
Q 40.71875 36.078125 36.5 40.90625 
Q 32.28125 45.75 26.3125 45.75 
Q 20.453125 45.75 16.34375 40.984375 
Q 12.25 36.234375 12.25 26.859375 
z
" id="ArialMT-103"/>
       </defs>
       <use xlink:href="#ArialMT-116"/>
       <use x="27.783203" xlink:href="#ArialMT-111"/>
       <use x="83.398438" xlink:href="#ArialMT-121"/>
       <use x="133.398438" xlink:href="#ArialMT-115"/>
       <use x="183.398438" xlink:href="#ArialMT-32"/>
       <use x="211.181641" xlink:href="#ArialMT-38"/>
       <use x="277.880859" xlink:href="#ArialMT-32"/>
       <use x="305.664062" xlink:href="#ArialMT-103"/>
       <use x="361.279297" xlink:href="#ArialMT-97"/>
       <use x="416.894531" xlink:href="#ArialMT-109"/>
       <use x="500.195312" xlink:href="#ArialMT-101"/>
       <use x="555.810547" xlink:href="#ArialMT-115"/>
      </g>
     </g>
    </g>
    <g id="ytick_5">
     <g id="text_10">
      <!-- tools &amp; home improvement -->
      <g style="fill:#262626;" transform="translate(20.217383 96.074316)scale(0.1375 -0.1375)">
       <defs>
        <path d="M 6.390625 0 
L 6.390625 71.578125 
L 15.1875 71.578125 
L 15.1875 0 
z
" id="ArialMT-108"/>
        <path d="M 6.59375 -19.875 
L 6.59375 51.859375 
L 14.59375 51.859375 
L 14.59375 45.125 
Q 17.4375 49.078125 21 51.046875 
Q 24.5625 53.03125 29.640625 53.03125 
Q 36.28125 53.03125 41.359375 49.609375 
Q 46.4375 46.1875 49.015625 39.953125 
Q 51.609375 33.734375 51.609375 26.3125 
Q 51.609375 18.359375 48.75 11.984375 
Q 45.90625 5.609375 40.453125 2.21875 
Q 35.015625 -1.171875 29 -1.171875 
Q 24.609375 -1.171875 21.109375 0.6875 
Q 17.625 2.546875 15.375 5.375 
L 15.375 -19.875 
z
M 14.546875 25.640625 
Q 14.546875 15.625 18.59375 10.84375 
Q 22.65625 6.0625 28.421875 6.0625 
Q 34.28125 6.0625 38.453125 11.015625 
Q 42.625 15.96875 42.625 26.375 
Q 42.625 36.28125 38.546875 41.203125 
Q 34.46875 46.140625 28.8125 46.140625 
Q 23.1875 46.140625 18.859375 40.890625 
Q 14.546875 35.640625 14.546875 25.640625 
z
" id="ArialMT-112"/>
        <path d="M 6.5 0 
L 6.5 51.859375 
L 14.40625 51.859375 
L 14.40625 44 
Q 17.4375 49.515625 20 51.265625 
Q 22.5625 53.03125 25.640625 53.03125 
Q 30.078125 53.03125 34.671875 50.203125 
L 31.640625 42.046875 
Q 28.421875 43.953125 25.203125 43.953125 
Q 22.3125 43.953125 20.015625 42.21875 
Q 17.71875 40.484375 16.75 37.40625 
Q 15.28125 32.71875 15.28125 27.15625 
L 15.28125 0 
z
" id="ArialMT-114"/>
        <path d="M 21 0 
L 1.265625 51.859375 
L 10.546875 51.859375 
L 21.6875 20.796875 
Q 23.484375 15.765625 25 10.359375 
Q 26.171875 14.453125 28.265625 20.21875 
L 39.796875 51.859375 
L 48.828125 51.859375 
L 29.203125 0 
z
" id="ArialMT-118"/>
       </defs>
       <use xlink:href="#ArialMT-116"/>
       <use x="27.783203" xlink:href="#ArialMT-111"/>
       <use x="83.398438" xlink:href="#ArialMT-111"/>
       <use x="139.013672" xlink:href="#ArialMT-108"/>
       <use x="161.230469" xlink:href="#ArialMT-115"/>
       <use x="211.230469" xlink:href="#ArialMT-32"/>
       <use x="239.013672" xlink:href="#ArialMT-38"/>
       <use x="305.712891" xlink:href="#ArialMT-32"/>
       <use x="333.496094" xlink:href="#ArialMT-104"/>
       <use x="389.111328" xlink:href="#ArialMT-111"/>
       <use x="444.726562" xlink:href="#ArialMT-109"/>
       <use x="528.027344" xlink:href="#ArialMT-101"/>
       <use x="583.642578" xlink:href="#ArialMT-32"/>
       <use x="611.425781" xlink:href="#ArialMT-105"/>
       <use x="633.642578" xlink:href="#ArialMT-109"/>
       <use x="716.943359" xlink:href="#ArialMT-112"/>
       <use x="772.558594" xlink:href="#ArialMT-114"/>
       <use x="805.859375" xlink:href="#ArialMT-111"/>
       <use x="861.474609" xlink:href="#ArialMT-118"/>
       <use x="911.474609" xlink:href="#ArialMT-101"/>
       <use x="967.089844" xlink:href="#ArialMT-109"/>
       <use x="1050.390625" xlink:href="#ArialMT-101"/>
       <use x="1106.005859" xlink:href="#ArialMT-110"/>
       <use x="1161.621094" xlink:href="#ArialMT-116"/>
      </g>
     </g>
    </g>
    <g id="ytick_6">
     <g id="text_11">
      <!-- sports &amp; outdoors -->
      <g style="fill:#262626;" transform="translate(75.992969 111.174316)scale(0.1375 -0.1375)">
       <defs>
        <path d="M 40.234375 0 
L 40.234375 6.546875 
Q 35.296875 -1.171875 25.734375 -1.171875 
Q 19.53125 -1.171875 14.328125 2.25 
Q 9.125 5.671875 6.265625 11.796875 
Q 3.421875 17.921875 3.421875 25.875 
Q 3.421875 33.640625 6 39.96875 
Q 8.59375 46.296875 13.765625 49.65625 
Q 18.953125 53.03125 25.34375 53.03125 
Q 30.03125 53.03125 33.6875 51.046875 
Q 37.359375 49.078125 39.65625 45.90625 
L 39.65625 71.578125 
L 48.390625 71.578125 
L 48.390625 0 
z
M 12.453125 25.875 
Q 12.453125 15.921875 16.640625 10.984375 
Q 20.84375 6.0625 26.5625 6.0625 
Q 32.328125 6.0625 36.34375 10.765625 
Q 40.375 15.484375 40.375 25.140625 
Q 40.375 35.796875 36.265625 40.765625 
Q 32.171875 45.75 26.171875 45.75 
Q 20.3125 45.75 16.375 40.96875 
Q 12.453125 36.1875 12.453125 25.875 
z
" id="ArialMT-100"/>
       </defs>
       <use xlink:href="#ArialMT-115"/>
       <use x="50" xlink:href="#ArialMT-112"/>
       <use x="105.615234" xlink:href="#ArialMT-111"/>
       <use x="161.230469" xlink:href="#ArialMT-114"/>
       <use x="194.53125" xlink:href="#ArialMT-116"/>
       <use x="222.314453" xlink:href="#ArialMT-115"/>
       <use x="272.314453" xlink:href="#ArialMT-32"/>
       <use x="300.097656" xlink:href="#ArialMT-38"/>
       <use x="366.796875" xlink:href="#ArialMT-32"/>
       <use x="394.580078" xlink:href="#ArialMT-111"/>
       <use x="450.195312" xlink:href="#ArialMT-117"/>
       <use x="505.810547" xlink:href="#ArialMT-116"/>
       <use x="533.59375" xlink:href="#ArialMT-100"/>
       <use x="589.208984" xlink:href="#ArialMT-111"/>
       <use x="644.824219" xlink:href="#ArialMT-111"/>
       <use x="700.439453" xlink:href="#ArialMT-114"/>
       <use x="733.740234" xlink:href="#ArialMT-115"/>
      </g>
     </g>
    </g>
    <g id="ytick_7">
     <g id="text_12">
      <!-- automotive -->
      <g style="fill:#262626;" transform="translate(116.495312 126.190527)scale(0.1375 -0.1375)">
       <use xlink:href="#ArialMT-97"/>
       <use x="55.615234" xlink:href="#ArialMT-117"/>
       <use x="111.230469" xlink:href="#ArialMT-116"/>
       <use x="139.013672" xlink:href="#ArialMT-111"/>
       <use x="194.628906" xlink:href="#ArialMT-109"/>
       <use x="277.929688" xlink:href="#ArialMT-111"/>
       <use x="333.544922" xlink:href="#ArialMT-116"/>
       <use x="361.328125" xlink:href="#ArialMT-105"/>
       <use x="383.544922" xlink:href="#ArialMT-118"/>
       <use x="433.544922" xlink:href="#ArialMT-101"/>
      </g>
     </g>
    </g>
    <g id="ytick_8">
     <g id="text_13">
      <!-- cell phones &amp; accessories -->
      <g style="fill:#262626;" transform="translate(24.787109 141.374316)scale(0.1375 -0.1375)">
       <defs>
        <path d="M 40.4375 19 
L 49.078125 17.875 
Q 47.65625 8.9375 41.8125 3.875 
Q 35.984375 -1.171875 27.484375 -1.171875 
Q 16.84375 -1.171875 10.375 5.78125 
Q 3.90625 12.75 3.90625 25.734375 
Q 3.90625 34.125 6.6875 40.421875 
Q 9.46875 46.734375 15.15625 49.875 
Q 20.84375 53.03125 27.546875 53.03125 
Q 35.984375 53.03125 41.359375 48.75 
Q 46.734375 44.484375 48.25 36.625 
L 39.703125 35.296875 
Q 38.484375 40.53125 35.375 43.15625 
Q 32.28125 45.796875 27.875 45.796875 
Q 21.234375 45.796875 17.078125 41.03125 
Q 12.9375 36.28125 12.9375 25.984375 
Q 12.9375 15.53125 16.9375 10.796875 
Q 20.953125 6.0625 27.390625 6.0625 
Q 32.5625 6.0625 36.03125 9.234375 
Q 39.5 12.40625 40.4375 19 
z
" id="ArialMT-99"/>
       </defs>
       <use xlink:href="#ArialMT-99"/>
       <use x="50" xlink:href="#ArialMT-101"/>
       <use x="105.615234" xlink:href="#ArialMT-108"/>
       <use x="127.832031" xlink:href="#ArialMT-108"/>
       <use x="150.048828" xlink:href="#ArialMT-32"/>
       <use x="177.832031" xlink:href="#ArialMT-112"/>
       <use x="233.447266" xlink:href="#ArialMT-104"/>
       <use x="289.0625" xlink:href="#ArialMT-111"/>
       <use x="344.677734" xlink:href="#ArialMT-110"/>
       <use x="400.292969" xlink:href="#ArialMT-101"/>
       <use x="455.908203" xlink:href="#ArialMT-115"/>
       <use x="505.908203" xlink:href="#ArialMT-32"/>
       <use x="533.691406" xlink:href="#ArialMT-38"/>
       <use x="600.390625" xlink:href="#ArialMT-32"/>
       <use x="628.173828" xlink:href="#ArialMT-97"/>
       <use x="683.789062" xlink:href="#ArialMT-99"/>
       <use x="733.789062" xlink:href="#ArialMT-99"/>
       <use x="783.789062" xlink:href="#ArialMT-101"/>
       <use x="839.404297" xlink:href="#ArialMT-115"/>
       <use x="889.404297" xlink:href="#ArialMT-115"/>
       <use x="939.404297" xlink:href="#ArialMT-111"/>
       <use x="995.019531" xlink:href="#ArialMT-114"/>
       <use x="1028.320312" xlink:href="#ArialMT-105"/>
       <use x="1050.537109" xlink:href="#ArialMT-101"/>
       <use x="1106.152344" xlink:href="#ArialMT-115"/>
      </g>
     </g>
    </g>
    <g id="ytick_9">
     <g id="text_14">
      <!-- grocery -->
      <g style="fill:#262626;" transform="translate(137.904492 156.309961)scale(0.1375 -0.1375)">
       <use xlink:href="#ArialMT-103"/>
       <use x="55.615234" xlink:href="#ArialMT-114"/>
       <use x="88.916016" xlink:href="#ArialMT-111"/>
       <use x="144.53125" xlink:href="#ArialMT-99"/>
       <use x="194.53125" xlink:href="#ArialMT-101"/>
       <use x="250.146484" xlink:href="#ArialMT-114"/>
       <use x="283.447266" xlink:href="#ArialMT-121"/>
      </g>
     </g>
    </g>
    <g id="ytick_10">
     <g id="text_15">
      <!-- computers -->
      <g style="fill:#262626;" transform="translate(119.563281 171.490527)scale(0.1375 -0.1375)">
       <use xlink:href="#ArialMT-99"/>
       <use x="50" xlink:href="#ArialMT-111"/>
       <use x="105.615234" xlink:href="#ArialMT-109"/>
       <use x="188.916016" xlink:href="#ArialMT-112"/>
       <use x="244.53125" xlink:href="#ArialMT-117"/>
       <use x="300.146484" xlink:href="#ArialMT-116"/>
       <use x="327.929688" xlink:href="#ArialMT-101"/>
       <use x="383.544922" xlink:href="#ArialMT-114"/>
       <use x="416.845703" xlink:href="#ArialMT-115"/>
      </g>
     </g>
    </g>
    <g id="ytick_11">
     <g id="text_16">
      <!-- all electronics -->
      <g style="fill:#262626;" transform="translate(100.455078 186.590527)scale(0.1375 -0.1375)">
       <use xlink:href="#ArialMT-97"/>
       <use x="55.615234" xlink:href="#ArialMT-108"/>
       <use x="77.832031" xlink:href="#ArialMT-108"/>
       <use x="100.048828" xlink:href="#ArialMT-32"/>
       <use x="127.832031" xlink:href="#ArialMT-101"/>
       <use x="183.447266" xlink:href="#ArialMT-108"/>
       <use x="205.664062" xlink:href="#ArialMT-101"/>
       <use x="261.279297" xlink:href="#ArialMT-99"/>
       <use x="311.279297" xlink:href="#ArialMT-116"/>
       <use x="339.0625" xlink:href="#ArialMT-114"/>
       <use x="372.363281" xlink:href="#ArialMT-111"/>
       <use x="427.978516" xlink:href="#ArialMT-110"/>
       <use x="483.59375" xlink:href="#ArialMT-105"/>
       <use x="505.810547" xlink:href="#ArialMT-99"/>
       <use x="555.810547" xlink:href="#ArialMT-115"/>
      </g>
     </g>
    </g>
    <g id="ytick_12">
     <g id="text_17">
      <!-- office products -->
      <g style="fill:#262626;" transform="translate(94.574805 201.774316)scale(0.1375 -0.1375)">
       <use xlink:href="#ArialMT-111"/>
       <use x="55.615234" xlink:href="#ArialMT-102"/>
       <use x="81.648438" xlink:href="#ArialMT-102"/>
       <use x="109.431641" xlink:href="#ArialMT-105"/>
       <use x="131.648438" xlink:href="#ArialMT-99"/>
       <use x="181.648438" xlink:href="#ArialMT-101"/>
       <use x="237.263672" xlink:href="#ArialMT-32"/>
       <use x="265.046875" xlink:href="#ArialMT-112"/>
       <use x="320.662109" xlink:href="#ArialMT-114"/>
       <use x="353.962891" xlink:href="#ArialMT-111"/>
       <use x="409.578125" xlink:href="#ArialMT-100"/>
       <use x="465.193359" xlink:href="#ArialMT-117"/>
       <use x="520.808594" xlink:href="#ArialMT-99"/>
       <use x="570.808594" xlink:href="#ArialMT-116"/>
       <use x="598.591797" xlink:href="#ArialMT-115"/>
      </g>
     </g>
    </g>
    <g id="ytick_13">
     <g id="text_18">
      <!-- camera &amp; photo -->
      <g style="fill:#262626;" transform="translate(86.687891 216.874316)scale(0.1375 -0.1375)">
       <use xlink:href="#ArialMT-99"/>
       <use x="50" xlink:href="#ArialMT-97"/>
       <use x="105.615234" xlink:href="#ArialMT-109"/>
       <use x="188.916016" xlink:href="#ArialMT-101"/>
       <use x="244.53125" xlink:href="#ArialMT-114"/>
       <use x="277.832031" xlink:href="#ArialMT-97"/>
       <use x="333.447266" xlink:href="#ArialMT-32"/>
       <use x="361.230469" xlink:href="#ArialMT-38"/>
       <use x="427.929688" xlink:href="#ArialMT-32"/>
       <use x="455.712891" xlink:href="#ArialMT-112"/>
       <use x="511.328125" xlink:href="#ArialMT-104"/>
       <use x="566.943359" xlink:href="#ArialMT-111"/>
       <use x="622.558594" xlink:href="#ArialMT-116"/>
       <use x="650.341797" xlink:href="#ArialMT-111"/>
      </g>
     </g>
    </g>
    <g id="ytick_14">
     <g id="text_19">
      <!-- arts, crafts &amp; sewing -->
      <g style="fill:#262626;" transform="translate(59.965625 231.974316)scale(0.1375 -0.1375)">
       <defs>
        <path d="M 8.890625 0 
L 8.890625 10.015625 
L 18.890625 10.015625 
L 18.890625 0 
Q 18.890625 -5.515625 16.9375 -8.90625 
Q 14.984375 -12.3125 10.75 -14.15625 
L 8.296875 -10.40625 
Q 11.078125 -9.1875 12.390625 -6.8125 
Q 13.71875 -4.4375 13.875 0 
z
" id="ArialMT-44"/>
        <path d="M 16.15625 0 
L 0.296875 51.859375 
L 9.375 51.859375 
L 17.625 21.921875 
L 20.703125 10.796875 
Q 20.90625 11.625 23.390625 21.484375 
L 31.640625 51.859375 
L 40.671875 51.859375 
L 48.4375 21.78125 
L 51.03125 11.859375 
L 54 21.875 
L 62.890625 51.859375 
L 71.4375 51.859375 
L 55.21875 0 
L 46.09375 0 
L 37.84375 31.0625 
L 35.84375 39.890625 
L 25.34375 0 
z
" id="ArialMT-119"/>
       </defs>
       <use xlink:href="#ArialMT-97"/>
       <use x="55.615234" xlink:href="#ArialMT-114"/>
       <use x="88.916016" xlink:href="#ArialMT-116"/>
       <use x="116.699219" xlink:href="#ArialMT-115"/>
       <use x="166.699219" xlink:href="#ArialMT-44"/>
       <use x="194.482422" xlink:href="#ArialMT-32"/>
       <use x="222.265625" xlink:href="#ArialMT-99"/>
       <use x="272.265625" xlink:href="#ArialMT-114"/>
       <use x="305.566406" xlink:href="#ArialMT-97"/>
       <use x="361.181641" xlink:href="#ArialMT-102"/>
       <use x="388.964844" xlink:href="#ArialMT-116"/>
       <use x="416.748047" xlink:href="#ArialMT-115"/>
       <use x="466.748047" xlink:href="#ArialMT-32"/>
       <use x="494.53125" xlink:href="#ArialMT-38"/>
       <use x="561.230469" xlink:href="#ArialMT-32"/>
       <use x="589.013672" xlink:href="#ArialMT-115"/>
       <use x="639.013672" xlink:href="#ArialMT-101"/>
       <use x="694.628906" xlink:href="#ArialMT-119"/>
       <use x="766.845703" xlink:href="#ArialMT-105"/>
       <use x="789.0625" xlink:href="#ArialMT-110"/>
       <use x="844.677734" xlink:href="#ArialMT-103"/>
      </g>
     </g>
    </g>
    <g id="ytick_15">
     <g id="text_20">
      <!-- industrial &amp; scientific -->
      <g style="fill:#262626;" transform="translate(59.192187 246.990527)scale(0.1375 -0.1375)">
       <use xlink:href="#ArialMT-105"/>
       <use x="22.216797" xlink:href="#ArialMT-110"/>
       <use x="77.832031" xlink:href="#ArialMT-100"/>
       <use x="133.447266" xlink:href="#ArialMT-117"/>
       <use x="189.0625" xlink:href="#ArialMT-115"/>
       <use x="239.0625" xlink:href="#ArialMT-116"/>
       <use x="266.845703" xlink:href="#ArialMT-114"/>
       <use x="300.146484" xlink:href="#ArialMT-105"/>
       <use x="322.363281" xlink:href="#ArialMT-97"/>
       <use x="377.978516" xlink:href="#ArialMT-108"/>
       <use x="400.195312" xlink:href="#ArialMT-32"/>
       <use x="427.978516" xlink:href="#ArialMT-38"/>
       <use x="494.677734" xlink:href="#ArialMT-32"/>
       <use x="522.460938" xlink:href="#ArialMT-115"/>
       <use x="572.460938" xlink:href="#ArialMT-99"/>
       <use x="622.460938" xlink:href="#ArialMT-105"/>
       <use x="644.677734" xlink:href="#ArialMT-101"/>
       <use x="700.292969" xlink:href="#ArialMT-110"/>
       <use x="755.908203" xlink:href="#ArialMT-116"/>
       <use x="783.691406" xlink:href="#ArialMT-105"/>
       <use x="805.908203" xlink:href="#ArialMT-102"/>
       <use x="833.691406" xlink:href="#ArialMT-105"/>
       <use x="855.908203" xlink:href="#ArialMT-99"/>
      </g>
     </g>
    </g>
    <g id="ytick_16">
     <g id="text_21">
      <!-- pet supplies -->
      <g style="fill:#262626;" transform="translate(110.372266 262.090527)scale(0.1375 -0.1375)">
       <use xlink:href="#ArialMT-112"/>
       <use x="55.615234" xlink:href="#ArialMT-101"/>
       <use x="111.230469" xlink:href="#ArialMT-116"/>
       <use x="139.013672" xlink:href="#ArialMT-32"/>
       <use x="166.796875" xlink:href="#ArialMT-115"/>
       <use x="216.796875" xlink:href="#ArialMT-117"/>
       <use x="272.412109" xlink:href="#ArialMT-112"/>
       <use x="328.027344" xlink:href="#ArialMT-112"/>
       <use x="383.642578" xlink:href="#ArialMT-108"/>
       <use x="405.859375" xlink:href="#ArialMT-105"/>
       <use x="428.076172" xlink:href="#ArialMT-101"/>
       <use x="483.691406" xlink:href="#ArialMT-115"/>
      </g>
     </g>
    </g>
    <g id="ytick_17">
     <g id="text_22">
      <!-- digital music -->
      <g style="fill:#262626;" transform="translate(108.101367 277.190527)scale(0.1375 -0.1375)">
       <use xlink:href="#ArialMT-100"/>
       <use x="55.615234" xlink:href="#ArialMT-105"/>
       <use x="77.832031" xlink:href="#ArialMT-103"/>
       <use x="133.447266" xlink:href="#ArialMT-105"/>
       <use x="155.664062" xlink:href="#ArialMT-116"/>
       <use x="183.447266" xlink:href="#ArialMT-97"/>
       <use x="239.0625" xlink:href="#ArialMT-108"/>
       <use x="261.279297" xlink:href="#ArialMT-32"/>
       <use x="289.0625" xlink:href="#ArialMT-109"/>
       <use x="372.363281" xlink:href="#ArialMT-117"/>
       <use x="427.978516" xlink:href="#ArialMT-115"/>
       <use x="477.978516" xlink:href="#ArialMT-105"/>
       <use x="500.195312" xlink:href="#ArialMT-99"/>
      </g>
     </g>
    </g>
    <g id="ytick_18">
     <g id="text_23">
      <!-- home audio &amp; theater -->
      <g style="fill:#262626;" transform="translate(52.282812 292.290527)scale(0.1375 -0.1375)">
       <use xlink:href="#ArialMT-104"/>
       <use x="55.615234" xlink:href="#ArialMT-111"/>
       <use x="111.230469" xlink:href="#ArialMT-109"/>
       <use x="194.53125" xlink:href="#ArialMT-101"/>
       <use x="250.146484" xlink:href="#ArialMT-32"/>
       <use x="277.929688" xlink:href="#ArialMT-97"/>
       <use x="333.544922" xlink:href="#ArialMT-117"/>
       <use x="389.160156" xlink:href="#ArialMT-100"/>
       <use x="444.775391" xlink:href="#ArialMT-105"/>
       <use x="466.992188" xlink:href="#ArialMT-111"/>
       <use x="522.607422" xlink:href="#ArialMT-32"/>
       <use x="550.390625" xlink:href="#ArialMT-38"/>
       <use x="617.089844" xlink:href="#ArialMT-32"/>
       <use x="644.873047" xlink:href="#ArialMT-116"/>
       <use x="672.65625" xlink:href="#ArialMT-104"/>
       <use x="728.271484" xlink:href="#ArialMT-101"/>
       <use x="783.886719" xlink:href="#ArialMT-97"/>
       <use x="839.501953" xlink:href="#ArialMT-116"/>
       <use x="867.285156" xlink:href="#ArialMT-101"/>
       <use x="922.900391" xlink:href="#ArialMT-114"/>
      </g>
     </g>
    </g>
    <g id="ytick_19">
     <g id="text_24">
      <!-- musical instruments -->
      <g style="fill:#262626;" transform="translate(62.262305 307.390527)scale(0.1375 -0.1375)">
       <use xlink:href="#ArialMT-109"/>
       <use x="83.300781" xlink:href="#ArialMT-117"/>
       <use x="138.916016" xlink:href="#ArialMT-115"/>
       <use x="188.916016" xlink:href="#ArialMT-105"/>
       <use x="211.132812" xlink:href="#ArialMT-99"/>
       <use x="261.132812" xlink:href="#ArialMT-97"/>
       <use x="316.748047" xlink:href="#ArialMT-108"/>
       <use x="338.964844" xlink:href="#ArialMT-32"/>
       <use x="366.748047" xlink:href="#ArialMT-105"/>
       <use x="388.964844" xlink:href="#ArialMT-110"/>
       <use x="444.580078" xlink:href="#ArialMT-115"/>
       <use x="494.580078" xlink:href="#ArialMT-116"/>
       <use x="522.363281" xlink:href="#ArialMT-114"/>
       <use x="555.664062" xlink:href="#ArialMT-117"/>
       <use x="611.279297" xlink:href="#ArialMT-109"/>
       <use x="694.580078" xlink:href="#ArialMT-101"/>
       <use x="750.195312" xlink:href="#ArialMT-110"/>
       <use x="805.810547" xlink:href="#ArialMT-116"/>
       <use x="833.59375" xlink:href="#ArialMT-115"/>
      </g>
     </g>
    </g>
    <g id="ytick_20">
     <g id="text_25">
      <!-- video games -->
      <g style="fill:#262626;" transform="translate(105.793945 322.490527)scale(0.1375 -0.1375)">
       <use xlink:href="#ArialMT-118"/>
       <use x="50" xlink:href="#ArialMT-105"/>
       <use x="72.216797" xlink:href="#ArialMT-100"/>
       <use x="127.832031" xlink:href="#ArialMT-101"/>
       <use x="183.447266" xlink:href="#ArialMT-111"/>
       <use x="239.0625" xlink:href="#ArialMT-32"/>
       <use x="266.845703" xlink:href="#ArialMT-103"/>
       <use x="322.460938" xlink:href="#ArialMT-97"/>
       <use x="378.076172" xlink:href="#ArialMT-109"/>
       <use x="461.376953" xlink:href="#ArialMT-101"/>
       <use x="516.992188" xlink:href="#ArialMT-115"/>
      </g>
     </g>
    </g>
    <g id="ytick_21">
     <g id="text_26">
      <!-- movies &amp; tv -->
      <g style="fill:#262626;" transform="translate(112.692578 337.590527)scale(0.1375 -0.1375)">
       <use xlink:href="#ArialMT-109"/>
       <use x="83.300781" xlink:href="#ArialMT-111"/>
       <use x="138.916016" xlink:href="#ArialMT-118"/>
       <use x="188.916016" xlink:href="#ArialMT-105"/>
       <use x="211.132812" xlink:href="#ArialMT-101"/>
       <use x="266.748047" xlink:href="#ArialMT-115"/>
       <use x="316.748047" xlink:href="#ArialMT-32"/>
       <use x="344.53125" xlink:href="#ArialMT-38"/>
       <use x="411.230469" xlink:href="#ArialMT-32"/>
       <use x="439.013672" xlink:href="#ArialMT-116"/>
       <use x="466.796875" xlink:href="#ArialMT-118"/>
      </g>
     </g>
    </g>
    <g id="ytick_22">
     <g id="text_27">
      <!-- luxury beauty -->
      <g style="fill:#262626;" transform="translate(101.974023 352.690527)scale(0.1375 -0.1375)">
       <defs>
        <path d="M 0.734375 0 
L 19.671875 26.953125 
L 2.15625 51.859375 
L 13.140625 51.859375 
L 21.09375 39.703125 
Q 23.34375 36.234375 24.703125 33.890625 
Q 26.859375 37.109375 28.65625 39.59375 
L 37.40625 51.859375 
L 47.90625 51.859375 
L 29.984375 27.4375 
L 49.265625 0 
L 38.484375 0 
L 27.828125 16.109375 
L 25 20.453125 
L 11.375 0 
z
" id="ArialMT-120"/>
       </defs>
       <use xlink:href="#ArialMT-108"/>
       <use x="22.216797" xlink:href="#ArialMT-117"/>
       <use x="77.832031" xlink:href="#ArialMT-120"/>
       <use x="127.832031" xlink:href="#ArialMT-117"/>
       <use x="183.447266" xlink:href="#ArialMT-114"/>
       <use x="216.748047" xlink:href="#ArialMT-121"/>
       <use x="266.748047" xlink:href="#ArialMT-32"/>
       <use x="294.53125" xlink:href="#ArialMT-98"/>
       <use x="350.146484" xlink:href="#ArialMT-101"/>
       <use x="405.761719" xlink:href="#ArialMT-97"/>
       <use x="461.376953" xlink:href="#ArialMT-117"/>
       <use x="516.992188" xlink:href="#ArialMT-116"/>
       <use x="544.775391" xlink:href="#ArialMT-121"/>
      </g>
     </g>
    </g>
    <g id="ytick_23">
     <g id="text_28">
      <!-- software -->
      <g style="fill:#262626;" transform="translate(131.787891 367.790527)scale(0.1375 -0.1375)">
       <use xlink:href="#ArialMT-115"/>
       <use x="50" xlink:href="#ArialMT-111"/>
       <use x="105.615234" xlink:href="#ArialMT-102"/>
       <use x="133.398438" xlink:href="#ArialMT-116"/>
       <use x="161.181641" xlink:href="#ArialMT-119"/>
       <use x="233.398438" xlink:href="#ArialMT-97"/>
       <use x="289.013672" xlink:href="#ArialMT-114"/>
       <use x="322.314453" xlink:href="#ArialMT-101"/>
      </g>
     </g>
    </g>
    <g id="ytick_24">
     <g id="text_29">
      <!-- health &amp; personal care -->
      <g style="fill:#262626;" transform="translate(46.172656 382.974316)scale(0.1375 -0.1375)">
       <use xlink:href="#ArialMT-104"/>
       <use x="55.615234" xlink:href="#ArialMT-101"/>
       <use x="111.230469" xlink:href="#ArialMT-97"/>
       <use x="166.845703" xlink:href="#ArialMT-108"/>
       <use x="189.0625" xlink:href="#ArialMT-116"/>
       <use x="216.845703" xlink:href="#ArialMT-104"/>
       <use x="272.460938" xlink:href="#ArialMT-32"/>
       <use x="300.244141" xlink:href="#ArialMT-38"/>
       <use x="366.943359" xlink:href="#ArialMT-32"/>
       <use x="394.726562" xlink:href="#ArialMT-112"/>
       <use x="450.341797" xlink:href="#ArialMT-101"/>
       <use x="505.957031" xlink:href="#ArialMT-114"/>
       <use x="539.257812" xlink:href="#ArialMT-115"/>
       <use x="589.257812" xlink:href="#ArialMT-111"/>
       <use x="644.873047" xlink:href="#ArialMT-110"/>
       <use x="700.488281" xlink:href="#ArialMT-97"/>
       <use x="756.103516" xlink:href="#ArialMT-108"/>
       <use x="778.320312" xlink:href="#ArialMT-32"/>
       <use x="806.103516" xlink:href="#ArialMT-99"/>
       <use x="856.103516" xlink:href="#ArialMT-97"/>
       <use x="911.71875" xlink:href="#ArialMT-114"/>
       <use x="945.019531" xlink:href="#ArialMT-101"/>
      </g>
     </g>
    </g>
    <g id="ytick_25">
     <g id="text_30">
      <!-- car electronics -->
      <g style="fill:#262626;" transform="translate(95.111914 397.990527)scale(0.1375 -0.1375)">
       <use xlink:href="#ArialMT-99"/>
       <use x="50" xlink:href="#ArialMT-97"/>
       <use x="105.615234" xlink:href="#ArialMT-114"/>
       <use x="138.916016" xlink:href="#ArialMT-32"/>
       <use x="166.699219" xlink:href="#ArialMT-101"/>
       <use x="222.314453" xlink:href="#ArialMT-108"/>
       <use x="244.53125" xlink:href="#ArialMT-101"/>
       <use x="300.146484" xlink:href="#ArialMT-99"/>
       <use x="350.146484" xlink:href="#ArialMT-116"/>
       <use x="377.929688" xlink:href="#ArialMT-114"/>
       <use x="411.230469" xlink:href="#ArialMT-111"/>
       <use x="466.845703" xlink:href="#ArialMT-110"/>
       <use x="522.460938" xlink:href="#ArialMT-105"/>
       <use x="544.677734" xlink:href="#ArialMT-99"/>
       <use x="594.677734" xlink:href="#ArialMT-115"/>
      </g>
     </g>
    </g>
    <g id="ytick_26">
     <g id="text_31">
      <!-- baby -->
      <g style="fill:#262626;" transform="translate(153.936133 413.090527)scale(0.1375 -0.1375)">
       <use xlink:href="#ArialMT-98"/>
       <use x="55.615234" xlink:href="#ArialMT-97"/>
       <use x="111.230469" xlink:href="#ArialMT-98"/>
       <use x="166.845703" xlink:href="#ArialMT-121"/>
      </g>
     </g>
    </g>
    <g id="ytick_27">
     <g id="text_32">
      <!-- handmade -->
      <g style="fill:#262626;" transform="translate(118.772656 428.190527)scale(0.1375 -0.1375)">
       <use xlink:href="#ArialMT-104"/>
       <use x="55.615234" xlink:href="#ArialMT-97"/>
       <use x="111.230469" xlink:href="#ArialMT-110"/>
       <use x="166.845703" xlink:href="#ArialMT-100"/>
       <use x="222.460938" xlink:href="#ArialMT-109"/>
       <use x="305.761719" xlink:href="#ArialMT-97"/>
       <use x="361.376953" xlink:href="#ArialMT-100"/>
       <use x="416.992188" xlink:href="#ArialMT-101"/>
      </g>
     </g>
    </g>
    <g id="ytick_28">
     <g id="text_33">
      <!-- all beauty -->
      <g style="fill:#262626;" transform="translate(124.893555 443.290527)scale(0.1375 -0.1375)">
       <use xlink:href="#ArialMT-97"/>
       <use x="55.615234" xlink:href="#ArialMT-108"/>
       <use x="77.832031" xlink:href="#ArialMT-108"/>
       <use x="100.048828" xlink:href="#ArialMT-32"/>
       <use x="127.832031" xlink:href="#ArialMT-98"/>
       <use x="183.447266" xlink:href="#ArialMT-101"/>
       <use x="239.0625" xlink:href="#ArialMT-97"/>
       <use x="294.677734" xlink:href="#ArialMT-117"/>
       <use x="350.292969" xlink:href="#ArialMT-116"/>
       <use x="378.076172" xlink:href="#ArialMT-121"/>
      </g>
     </g>
    </g>
    <g id="ytick_29">
     <g id="text_34">
      <!-- collectibles &amp; fine art -->
      <g style="fill:#262626;" transform="translate(57.656055 458.390527)scale(0.1375 -0.1375)">
       <use xlink:href="#ArialMT-99"/>
       <use x="50" xlink:href="#ArialMT-111"/>
       <use x="105.615234" xlink:href="#ArialMT-108"/>
       <use x="127.832031" xlink:href="#ArialMT-108"/>
       <use x="150.048828" xlink:href="#ArialMT-101"/>
       <use x="205.664062" xlink:href="#ArialMT-99"/>
       <use x="255.664062" xlink:href="#ArialMT-116"/>
       <use x="283.447266" xlink:href="#ArialMT-105"/>
       <use x="305.664062" xlink:href="#ArialMT-98"/>
       <use x="361.279297" xlink:href="#ArialMT-108"/>
       <use x="383.496094" xlink:href="#ArialMT-101"/>
       <use x="439.111328" xlink:href="#ArialMT-115"/>
       <use x="489.111328" xlink:href="#ArialMT-32"/>
       <use x="516.894531" xlink:href="#ArialMT-38"/>
       <use x="583.59375" xlink:href="#ArialMT-32"/>
       <use x="611.376953" xlink:href="#ArialMT-102"/>
       <use x="639.160156" xlink:href="#ArialMT-105"/>
       <use x="661.376953" xlink:href="#ArialMT-110"/>
       <use x="716.992188" xlink:href="#ArialMT-101"/>
       <use x="772.607422" xlink:href="#ArialMT-32"/>
       <use x="800.390625" xlink:href="#ArialMT-97"/>
       <use x="856.005859" xlink:href="#ArialMT-114"/>
       <use x="889.306641" xlink:href="#ArialMT-116"/>
      </g>
     </g>
    </g>
    <g id="ytick_30">
     <g id="text_35">
      <!-- prime pantry -->
      <g style="fill:#262626;" transform="translate(107.338672 473.490527)scale(0.1375 -0.1375)">
       <use xlink:href="#ArialMT-112"/>
       <use x="55.615234" xlink:href="#ArialMT-114"/>
       <use x="88.916016" xlink:href="#ArialMT-105"/>
       <use x="111.132812" xlink:href="#ArialMT-109"/>
       <use x="194.433594" xlink:href="#ArialMT-101"/>
       <use x="250.048828" xlink:href="#ArialMT-32"/>
       <use x="277.832031" xlink:href="#ArialMT-112"/>
       <use x="333.447266" xlink:href="#ArialMT-97"/>
       <use x="389.0625" xlink:href="#ArialMT-110"/>
       <use x="444.677734" xlink:href="#ArialMT-116"/>
       <use x="472.460938" xlink:href="#ArialMT-114"/>
       <use x="505.761719" xlink:href="#ArialMT-121"/>
      </g>
     </g>
    </g>
    <g id="ytick_31">
     <g id="text_36">
      <!-- gps &amp; navigation -->
      <g style="fill:#262626;" transform="translate(82.088086 488.674316)scale(0.1375 -0.1375)">
       <use xlink:href="#ArialMT-103"/>
       <use x="55.615234" xlink:href="#ArialMT-112"/>
       <use x="111.230469" xlink:href="#ArialMT-115"/>
       <use x="161.230469" xlink:href="#ArialMT-32"/>
       <use x="189.013672" xlink:href="#ArialMT-38"/>
       <use x="255.712891" xlink:href="#ArialMT-32"/>
       <use x="283.496094" xlink:href="#ArialMT-110"/>
       <use x="339.111328" xlink:href="#ArialMT-97"/>
       <use x="394.726562" xlink:href="#ArialMT-118"/>
       <use x="444.726562" xlink:href="#ArialMT-105"/>
       <use x="466.943359" xlink:href="#ArialMT-103"/>
       <use x="522.558594" xlink:href="#ArialMT-97"/>
       <use x="578.173828" xlink:href="#ArialMT-116"/>
       <use x="605.957031" xlink:href="#ArialMT-105"/>
       <use x="628.173828" xlink:href="#ArialMT-111"/>
       <use x="683.789062" xlink:href="#ArialMT-110"/>
      </g>
     </g>
    </g>
    <g id="ytick_32">
     <g id="text_37">
      <!-- appliances -->
      <g style="fill:#262626;" transform="translate(118.012109 503.690527)scale(0.1375 -0.1375)">
       <use xlink:href="#ArialMT-97"/>
       <use x="55.615234" xlink:href="#ArialMT-112"/>
       <use x="111.230469" xlink:href="#ArialMT-112"/>
       <use x="166.845703" xlink:href="#ArialMT-108"/>
       <use x="189.0625" xlink:href="#ArialMT-105"/>
       <use x="211.279297" xlink:href="#ArialMT-97"/>
       <use x="266.894531" xlink:href="#ArialMT-110"/>
       <use x="322.509766" xlink:href="#ArialMT-99"/>
       <use x="372.509766" xlink:href="#ArialMT-101"/>
       <use x="428.125" xlink:href="#ArialMT-115"/>
      </g>
     </g>
    </g>
    <g id="ytick_33">
     <g id="text_38">
      <!-- portable audio &amp; accessories -->
      <g style="fill:#262626;" transform="translate(7.2 518.874316)scale(0.1375 -0.1375)">
       <use xlink:href="#ArialMT-112"/>
       <use x="55.615234" xlink:href="#ArialMT-111"/>
       <use x="111.230469" xlink:href="#ArialMT-114"/>
       <use x="144.53125" xlink:href="#ArialMT-116"/>
       <use x="172.314453" xlink:href="#ArialMT-97"/>
       <use x="227.929688" xlink:href="#ArialMT-98"/>
       <use x="283.544922" xlink:href="#ArialMT-108"/>
       <use x="305.761719" xlink:href="#ArialMT-101"/>
       <use x="361.376953" xlink:href="#ArialMT-32"/>
       <use x="389.160156" xlink:href="#ArialMT-97"/>
       <use x="444.775391" xlink:href="#ArialMT-117"/>
       <use x="500.390625" xlink:href="#ArialMT-100"/>
       <use x="556.005859" xlink:href="#ArialMT-105"/>
       <use x="578.222656" xlink:href="#ArialMT-111"/>
       <use x="633.837891" xlink:href="#ArialMT-32"/>
       <use x="661.621094" xlink:href="#ArialMT-38"/>
       <use x="728.320312" xlink:href="#ArialMT-32"/>
       <use x="756.103516" xlink:href="#ArialMT-97"/>
       <use x="811.71875" xlink:href="#ArialMT-99"/>
       <use x="861.71875" xlink:href="#ArialMT-99"/>
       <use x="911.71875" xlink:href="#ArialMT-101"/>
       <use x="967.333984" xlink:href="#ArialMT-115"/>
       <use x="1017.333984" xlink:href="#ArialMT-115"/>
       <use x="1067.333984" xlink:href="#ArialMT-111"/>
       <use x="1122.949219" xlink:href="#ArialMT-114"/>
       <use x="1156.25" xlink:href="#ArialMT-105"/>
       <use x="1178.466797" xlink:href="#ArialMT-101"/>
       <use x="1234.082031" xlink:href="#ArialMT-115"/>
      </g>
     </g>
    </g>
    <g id="ytick_34">
     <g id="text_39">
      <!-- fine art -->
      <g style="fill:#262626;" transform="translate(141.717969 533.890527)scale(0.1375 -0.1375)">
       <use xlink:href="#ArialMT-102"/>
       <use x="27.783203" xlink:href="#ArialMT-105"/>
       <use x="50" xlink:href="#ArialMT-110"/>
       <use x="105.615234" xlink:href="#ArialMT-101"/>
       <use x="161.230469" xlink:href="#ArialMT-32"/>
       <use x="189.013672" xlink:href="#ArialMT-97"/>
       <use x="244.628906" xlink:href="#ArialMT-114"/>
       <use x="277.929688" xlink:href="#ArialMT-116"/>
      </g>
     </g>
    </g>
    <g id="ytick_35">
     <g id="text_40">
      <!-- amazon devices -->
      <g style="fill:#262626;" transform="translate(84.397656 548.990527)scale(0.1375 -0.1375)">
       <use xlink:href="#ArialMT-97"/>
       <use x="55.615234" xlink:href="#ArialMT-109"/>
       <use x="138.916016" xlink:href="#ArialMT-97"/>
       <use x="194.53125" xlink:href="#ArialMT-122"/>
       <use x="244.53125" xlink:href="#ArialMT-111"/>
       <use x="300.146484" xlink:href="#ArialMT-110"/>
       <use x="355.761719" xlink:href="#ArialMT-32"/>
       <use x="383.544922" xlink:href="#ArialMT-100"/>
       <use x="439.160156" xlink:href="#ArialMT-101"/>
       <use x="494.775391" xlink:href="#ArialMT-118"/>
       <use x="544.775391" xlink:href="#ArialMT-105"/>
       <use x="566.992188" xlink:href="#ArialMT-99"/>
       <use x="616.992188" xlink:href="#ArialMT-101"/>
       <use x="672.607422" xlink:href="#ArialMT-115"/>
      </g>
     </g>
    </g>
    <g id="ytick_36">
     <g id="text_41">
      <!-- gift cards -->
      <g style="fill:#262626;" transform="translate(127.967969 564.174316)scale(0.1375 -0.1375)">
       <use xlink:href="#ArialMT-103"/>
       <use x="55.615234" xlink:href="#ArialMT-105"/>
       <use x="77.832031" xlink:href="#ArialMT-102"/>
       <use x="105.615234" xlink:href="#ArialMT-116"/>
       <use x="133.398438" xlink:href="#ArialMT-32"/>
       <use x="161.181641" xlink:href="#ArialMT-99"/>
       <use x="211.181641" xlink:href="#ArialMT-97"/>
       <use x="266.796875" xlink:href="#ArialMT-114"/>
       <use x="300.097656" xlink:href="#ArialMT-100"/>
       <use x="355.712891" xlink:href="#ArialMT-115"/>
      </g>
     </g>
    </g>
   </g>
   <g id="patch_3">
    <path clip-path="url(#p6c7bc4d2b2)" d="M -98659.038972 24.629531 
L 512.831818 24.629531 
L 512.831818 36.709531 
L -98659.038972 36.709531 
z
" style="fill:#863846;stroke:#ffffff;stroke-linejoin:miter;"/>
   </g>
   <g id="patch_4">
    <path clip-path="url(#p6c7bc4d2b2)" d="M -98659.038972 39.729531 
L 494.364498 39.729531 
L 494.364498 51.809531 
L -98659.038972 51.809531 
z
" style="fill:#a36361;stroke:#ffffff;stroke-linejoin:miter;"/>
   </g>
   <g id="patch_5">
    <path clip-path="url(#p6c7bc4d2b2)" d="M -98659.038972 54.829531 
L 494.150654 54.829531 
L 494.150654 66.909531 
L -98659.038972 66.909531 
z
" style="fill:#a36361;stroke:#ffffff;stroke-linejoin:miter;"/>
   </g>
   <g id="patch_6">
    <path clip-path="url(#p6c7bc4d2b2)" d="M -98659.038972 69.929531 
L 489.016483 69.929531 
L 489.016483 82.009531 
L -98659.038972 82.009531 
z
" style="fill:#a96c67;stroke:#ffffff;stroke-linejoin:miter;"/>
   </g>
   <g id="patch_7">
    <path clip-path="url(#p6c7bc4d2b2)" d="M -98659.038972 85.029531 
L 482.042441 85.029531 
L 482.042441 97.109531 
L -98659.038972 97.109531 
z
" style="fill:#af746d;stroke:#ffffff;stroke-linejoin:miter;"/>
   </g>
   <g id="patch_8">
    <path clip-path="url(#p6c7bc4d2b2)" d="M -98659.038972 100.129531 
L 480.621983 100.129531 
L 480.621983 112.209531 
L -98659.038972 112.209531 
z
" style="fill:#b0766e;stroke:#ffffff;stroke-linejoin:miter;"/>
   </g>
   <g id="patch_9">
    <path clip-path="url(#p6c7bc4d2b2)" d="M -98659.038972 115.229531 
L 472.640511 115.229531 
L 472.640511 127.309531 
L -98659.038972 127.309531 
z
" style="fill:#b88177;stroke:#ffffff;stroke-linejoin:miter;"/>
   </g>
   <g id="patch_10">
    <path clip-path="url(#p6c7bc4d2b2)" d="M -98659.038972 130.329531 
L 466.538621 130.329531 
L 466.538621 142.409531 
L -98659.038972 142.409531 
z
" style="fill:#bd887d;stroke:#ffffff;stroke-linejoin:miter;"/>
   </g>
   <g id="patch_11">
    <path clip-path="url(#p6c7bc4d2b2)" d="M -98659.038972 145.429531 
L 450.066811 145.429531 
L 450.066811 157.509531 
L -98659.038972 157.509531 
z
" style="fill:#cb9c8f;stroke:#ffffff;stroke-linejoin:miter;"/>
   </g>
   <g id="patch_12">
    <path clip-path="url(#p6c7bc4d2b2)" d="M -98659.038972 160.529531 
L 446.047799 160.529531 
L 446.047799 172.609531 
L -98659.038972 172.609531 
z
" style="fill:#cea194;stroke:#ffffff;stroke-linejoin:miter;"/>
   </g>
   <g id="patch_13">
    <path clip-path="url(#p6c7bc4d2b2)" d="M -98659.038972 175.629531 
L 431.860617 175.629531 
L 431.860617 187.709531 
L -98659.038972 187.709531 
z
" style="fill:#d6afa1;stroke:#ffffff;stroke-linejoin:miter;"/>
   </g>
   <g id="patch_14">
    <path clip-path="url(#p6c7bc4d2b2)" d="M -98659.038972 190.729531 
L 430.302483 190.729531 
L 430.302483 202.809531 
L -98659.038972 202.809531 
z
" style="fill:#d6b0a3;stroke:#ffffff;stroke-linejoin:miter;"/>
   </g>
   <g id="patch_15">
    <path clip-path="url(#p6c7bc4d2b2)" d="M -98659.038972 205.829531 
L 423.033661 205.829531 
L 423.033661 217.909531 
L -98659.038972 217.909531 
z
" style="fill:#dab8ab;stroke:#ffffff;stroke-linejoin:miter;"/>
   </g>
   <g id="patch_16">
    <path clip-path="url(#p6c7bc4d2b2)" d="M -98659.038972 220.929531 
L 418.009924 220.929531 
L 418.009924 233.009531 
L -98659.038972 233.009531 
z
" style="fill:#dcbcae;stroke:#ffffff;stroke-linejoin:miter;"/>
   </g>
   <g id="patch_17">
    <path clip-path="url(#p6c7bc4d2b2)" d="M -98659.038972 236.029531 
L 417.99842 236.029531 
L 417.99842 248.109531 
L -98659.038972 248.109531 
z
" style="fill:#dcbcae;stroke:#ffffff;stroke-linejoin:miter;"/>
   </g>
   <g id="patch_18">
    <path clip-path="url(#p6c7bc4d2b2)" d="M -98659.038972 251.129531 
L 411.557179 251.129531 
L 411.557179 263.209531 
L -98659.038972 263.209531 
z
" style="fill:#dec3b6;stroke:#ffffff;stroke-linejoin:miter;"/>
   </g>
   <g id="patch_19">
    <path clip-path="url(#p6c7bc4d2b2)" d="M -98659.038972 266.229531 
L 411.010818 266.229531 
L 411.010818 278.309531 
L -98659.038972 278.309531 
z
" style="fill:#dec3b6;stroke:#ffffff;stroke-linejoin:miter;"/>
   </g>
   <g id="patch_20">
    <path clip-path="url(#p6c7bc4d2b2)" d="M -98659.038972 281.329531 
L 409.838321 281.329531 
L 409.838321 293.409531 
L -98659.038972 293.409531 
z
" style="fill:#dfc4b7;stroke:#ffffff;stroke-linejoin:miter;"/>
   </g>
   <g id="patch_21">
    <path clip-path="url(#p6c7bc4d2b2)" d="M -98659.038972 296.429531 
L 404.392585 296.429531 
L 404.392585 308.509531 
L -98659.038972 308.509531 
z
" style="fill:#e0c7bc;stroke:#ffffff;stroke-linejoin:miter;"/>
   </g>
   <g id="patch_22">
    <path clip-path="url(#p6c7bc4d2b2)" d="M -98659.038972 311.529531 
L 396.192221 311.529531 
L 396.192221 323.609531 
L -98659.038972 323.609531 
z
" style="fill:#e1cdc3;stroke:#ffffff;stroke-linejoin:miter;"/>
   </g>
   <g id="patch_23">
    <path clip-path="url(#p6c7bc4d2b2)" d="M -98659.038972 326.629531 
L 390.322529 326.629531 
L 390.322529 338.709531 
L -98659.038972 338.709531 
z
" style="fill:#e2d1c8;stroke:#ffffff;stroke-linejoin:miter;"/>
   </g>
   <g id="patch_24">
    <path clip-path="url(#p6c7bc4d2b2)" d="M -98659.038972 341.729531 
L 373.709382 341.729531 
L 373.709382 353.809531 
L -98659.038972 353.809531 
z
" style="fill:#e0d8d4;stroke:#ffffff;stroke-linejoin:miter;"/>
   </g>
   <g id="patch_25">
    <path clip-path="url(#p6c7bc4d2b2)" d="M -98659.038972 356.829531 
L 349.646471 356.829531 
L 349.646471 368.909531 
L -98659.038972 368.909531 
z
" style="fill:#d9dce1;stroke:#ffffff;stroke-linejoin:miter;"/>
   </g>
   <g id="patch_26">
    <path clip-path="url(#p6c7bc4d2b2)" d="M -98659.038972 371.929531 
L 349.017973 371.929531 
L 349.017973 384.009531 
L -98659.038972 384.009531 
z
" style="fill:#d8dce2;stroke:#ffffff;stroke-linejoin:miter;"/>
   </g>
   <g id="patch_27">
    <path clip-path="url(#p6c7bc4d2b2)" d="M -98659.038972 387.029531 
L 343.705896 387.029531 
L 343.705896 399.109531 
L -98659.038972 399.109531 
z
" style="fill:#d6dbe3;stroke:#ffffff;stroke-linejoin:miter;"/>
   </g>
   <g id="patch_28">
    <path clip-path="url(#p6c7bc4d2b2)" d="M -98659.038972 402.129531 
L 340.430336 402.129531 
L 340.430336 414.209531 
L -98659.038972 414.209531 
z
" style="fill:#d5dbe4;stroke:#ffffff;stroke-linejoin:miter;"/>
   </g>
   <g id="patch_29">
    <path clip-path="url(#p6c7bc4d2b2)" d="M -98659.038972 417.229531 
L 326.722631 417.229531 
L 326.722631 429.309531 
L -98659.038972 429.309531 
z
" style="fill:#cdd7e7;stroke:#ffffff;stroke-linejoin:miter;"/>
   </g>
   <g id="patch_30">
    <path clip-path="url(#p6c7bc4d2b2)" d="M -98659.038972 432.329531 
L 311.4019 432.329531 
L 311.4019 444.409531 
L -98659.038972 444.409531 
z
" style="fill:#c3cfe7;stroke:#ffffff;stroke-linejoin:miter;"/>
   </g>
   <g id="patch_31">
    <path clip-path="url(#p6c7bc4d2b2)" d="M -98659.038972 447.429531 
L 290.419594 447.429531 
L 290.419594 459.509531 
L -98659.038972 459.509531 
z
" style="fill:#b2c1e1;stroke:#ffffff;stroke-linejoin:miter;"/>
   </g>
   <g id="patch_32">
    <path clip-path="url(#p6c7bc4d2b2)" d="M -98659.038972 462.529531 
L 282.71624 462.529531 
L 282.71624 474.609531 
L -98659.038972 474.609531 
z
" style="fill:#abbbde;stroke:#ffffff;stroke-linejoin:miter;"/>
   </g>
   <g id="patch_33">
    <path clip-path="url(#p6c7bc4d2b2)" d="M -98659.038972 477.629531 
L 281.061762 477.629531 
L 281.061762 489.709531 
L -98659.038972 489.709531 
z
" style="fill:#aabade;stroke:#ffffff;stroke-linejoin:miter;"/>
   </g>
   <g id="patch_34">
    <path clip-path="url(#p6c7bc4d2b2)" d="M -98659.038972 492.729531 
L 269.36839 492.729531 
L 269.36839 504.809531 
L -98659.038972 504.809531 
z
" style="fill:#9eaed6;stroke:#ffffff;stroke-linejoin:miter;"/>
   </g>
   <g id="patch_35">
    <path clip-path="url(#p6c7bc4d2b2)" d="M -98659.038972 507.829531 
L 265.262595 507.829531 
L 265.262595 519.909531 
L -98659.038972 519.909531 
z
" style="fill:#9aaad4;stroke:#ffffff;stroke-linejoin:miter;"/>
   </g>
   <g id="patch_36">
    <path clip-path="url(#p6c7bc4d2b2)" d="M -98659.038972 522.929531 
L 238.166531 522.929531 
L 238.166531 535.009531 
L -98659.038972 535.009531 
z
" style="fill:#808ebe;stroke:#ffffff;stroke-linejoin:miter;"/>
   </g>
   <g id="patch_37">
    <path clip-path="url(#p6c7bc4d2b2)" d="M -98659.038972 538.029531 
L 220.177615 538.029531 
L 220.177615 550.109531 
L -98659.038972 550.109531 
z
" style="fill:#6d78ab;stroke:#ffffff;stroke-linejoin:miter;"/>
   </g>
   <g id="patch_38">
    <path clip-path="url(#p6c7bc4d2b2)" d="M -98659.038972 553.129531 
L 208.468182 553.129531 
L 208.468182 565.209531 
L -98659.038972 565.209531 
z
" style="fill:#61699d;stroke:#ffffff;stroke-linejoin:miter;"/>
   </g>
   <g id="line2d_5">
    <path clip-path="url(#p6c7bc4d2b2)" d="M 0 0 
" style="fill:none;stroke:#424242;stroke-linecap:round;stroke-width:2.7;"/>
   </g>
   <g id="line2d_6">
    <path clip-path="url(#p6c7bc4d2b2)" d="M 0 0 
" style="fill:none;stroke:#424242;stroke-linecap:round;stroke-width:2.7;"/>
   </g>
   <g id="line2d_7">
    <path clip-path="url(#p6c7bc4d2b2)" d="M 0 0 
" style="fill:none;stroke:#424242;stroke-linecap:round;stroke-width:2.7;"/>
   </g>
   <g id="line2d_8">
    <path clip-path="url(#p6c7bc4d2b2)" d="M 0 0 
" style="fill:none;stroke:#424242;stroke-linecap:round;stroke-width:2.7;"/>
   </g>
   <g id="line2d_9">
    <path clip-path="url(#p6c7bc4d2b2)" d="M 0 0 
" style="fill:none;stroke:#424242;stroke-linecap:round;stroke-width:2.7;"/>
   </g>
   <g id="line2d_10">
    <path clip-path="url(#p6c7bc4d2b2)" d="M 0 0 
" style="fill:none;stroke:#424242;stroke-linecap:round;stroke-width:2.7;"/>
   </g>
   <g id="line2d_11">
    <path clip-path="url(#p6c7bc4d2b2)" d="M 0 0 
" style="fill:none;stroke:#424242;stroke-linecap:round;stroke-width:2.7;"/>
   </g>
   <g id="line2d_12">
    <path clip-path="url(#p6c7bc4d2b2)" d="M 0 0 
" style="fill:none;stroke:#424242;stroke-linecap:round;stroke-width:2.7;"/>
   </g>
   <g id="line2d_13">
    <path clip-path="url(#p6c7bc4d2b2)" d="M 0 0 
" style="fill:none;stroke:#424242;stroke-linecap:round;stroke-width:2.7;"/>
   </g>
   <g id="line2d_14">
    <path clip-path="url(#p6c7bc4d2b2)" d="M 0 0 
" style="fill:none;stroke:#424242;stroke-linecap:round;stroke-width:2.7;"/>
   </g>
   <g id="line2d_15">
    <path clip-path="url(#p6c7bc4d2b2)" d="M 0 0 
" style="fill:none;stroke:#424242;stroke-linecap:round;stroke-width:2.7;"/>
   </g>
   <g id="line2d_16">
    <path clip-path="url(#p6c7bc4d2b2)" d="M 0 0 
" style="fill:none;stroke:#424242;stroke-linecap:round;stroke-width:2.7;"/>
   </g>
   <g id="line2d_17">
    <path clip-path="url(#p6c7bc4d2b2)" d="M 0 0 
" style="fill:none;stroke:#424242;stroke-linecap:round;stroke-width:2.7;"/>
   </g>
   <g id="line2d_18">
    <path clip-path="url(#p6c7bc4d2b2)" d="M 0 0 
" style="fill:none;stroke:#424242;stroke-linecap:round;stroke-width:2.7;"/>
   </g>
   <g id="line2d_19">
    <path clip-path="url(#p6c7bc4d2b2)" d="M 0 0 
" style="fill:none;stroke:#424242;stroke-linecap:round;stroke-width:2.7;"/>
   </g>
   <g id="line2d_20">
    <path clip-path="url(#p6c7bc4d2b2)" d="M 0 0 
" style="fill:none;stroke:#424242;stroke-linecap:round;stroke-width:2.7;"/>
   </g>
   <g id="line2d_21">
    <path clip-path="url(#p6c7bc4d2b2)" d="M 0 0 
" style="fill:none;stroke:#424242;stroke-linecap:round;stroke-width:2.7;"/>
   </g>
   <g id="line2d_22">
    <path clip-path="url(#p6c7bc4d2b2)" d="M 0 0 
" style="fill:none;stroke:#424242;stroke-linecap:round;stroke-width:2.7;"/>
   </g>
   <g id="line2d_23">
    <path clip-path="url(#p6c7bc4d2b2)" d="M 0 0 
" style="fill:none;stroke:#424242;stroke-linecap:round;stroke-width:2.7;"/>
   </g>
   <g id="line2d_24">
    <path clip-path="url(#p6c7bc4d2b2)" d="M 0 0 
" style="fill:none;stroke:#424242;stroke-linecap:round;stroke-width:2.7;"/>
   </g>
   <g id="line2d_25">
    <path clip-path="url(#p6c7bc4d2b2)" d="M 0 0 
" style="fill:none;stroke:#424242;stroke-linecap:round;stroke-width:2.7;"/>
   </g>
   <g id="line2d_26">
    <path clip-path="url(#p6c7bc4d2b2)" d="M 0 0 
" style="fill:none;stroke:#424242;stroke-linecap:round;stroke-width:2.7;"/>
   </g>
   <g id="line2d_27">
    <path clip-path="url(#p6c7bc4d2b2)" d="M 0 0 
" style="fill:none;stroke:#424242;stroke-linecap:round;stroke-width:2.7;"/>
   </g>
   <g id="line2d_28">
    <path clip-path="url(#p6c7bc4d2b2)" d="M 0 0 
" style="fill:none;stroke:#424242;stroke-linecap:round;stroke-width:2.7;"/>
   </g>
   <g id="line2d_29">
    <path clip-path="url(#p6c7bc4d2b2)" d="M 0 0 
" style="fill:none;stroke:#424242;stroke-linecap:round;stroke-width:2.7;"/>
   </g>
   <g id="line2d_30">
    <path clip-path="url(#p6c7bc4d2b2)" d="M 0 0 
" style="fill:none;stroke:#424242;stroke-linecap:round;stroke-width:2.7;"/>
   </g>
   <g id="line2d_31">
    <path clip-path="url(#p6c7bc4d2b2)" d="M 0 0 
" style="fill:none;stroke:#424242;stroke-linecap:round;stroke-width:2.7;"/>
   </g>
   <g id="line2d_32">
    <path clip-path="url(#p6c7bc4d2b2)" d="M 0 0 
" style="fill:none;stroke:#424242;stroke-linecap:round;stroke-width:2.7;"/>
   </g>
   <g id="line2d_33">
    <path clip-path="url(#p6c7bc4d2b2)" d="M 0 0 
" style="fill:none;stroke:#424242;stroke-linecap:round;stroke-width:2.7;"/>
   </g>
   <g id="line2d_34">
    <path clip-path="url(#p6c7bc4d2b2)" d="M 0 0 
" style="fill:none;stroke:#424242;stroke-linecap:round;stroke-width:2.7;"/>
   </g>
   <g id="line2d_35">
    <path clip-path="url(#p6c7bc4d2b2)" d="M 0 0 
" style="fill:none;stroke:#424242;stroke-linecap:round;stroke-width:2.7;"/>
   </g>
   <g id="line2d_36">
    <path clip-path="url(#p6c7bc4d2b2)" d="M 0 0 
" style="fill:none;stroke:#424242;stroke-linecap:round;stroke-width:2.7;"/>
   </g>
   <g id="line2d_37">
    <path clip-path="url(#p6c7bc4d2b2)" d="M 0 0 
" style="fill:none;stroke:#424242;stroke-linecap:round;stroke-width:2.7;"/>
   </g>
   <g id="line2d_38">
    <path clip-path="url(#p6c7bc4d2b2)" d="M 0 0 
" style="fill:none;stroke:#424242;stroke-linecap:round;stroke-width:2.7;"/>
   </g>
   <g id="line2d_39">
    <path clip-path="url(#p6c7bc4d2b2)" d="M 0 0 
" style="fill:none;stroke:#424242;stroke-linecap:round;stroke-width:2.7;"/>
   </g>
   <g id="line2d_40">
    <path clip-path="url(#p6c7bc4d2b2)" d="M 0 0 
" style="fill:none;stroke:#424242;stroke-linecap:round;stroke-width:2.7;"/>
   </g>
   <g id="patch_39">
    <path d="M 193.25 566.719531 
L 193.25 23.119531 
" style="fill:none;stroke:#cccccc;stroke-linecap:square;stroke-linejoin:miter;stroke-width:1.25;"/>
   </g>
   <g id="patch_40">
    <path d="M 528.05 566.719531 
L 528.05 23.119531 
" style="fill:none;stroke:#cccccc;stroke-linecap:square;stroke-linejoin:miter;stroke-width:1.25;"/>
   </g>
   <g id="patch_41">
    <path d="M 193.25 566.719531 
L 528.05 566.719531 
" style="fill:none;stroke:#cccccc;stroke-linecap:square;stroke-linejoin:miter;stroke-width:1.25;"/>
   </g>
   <g id="patch_42">
    <path d="M 193.25 23.119531 
L 528.05 23.119531 
" style="fill:none;stroke:#cccccc;stroke-linecap:square;stroke-linejoin:miter;stroke-width:1.25;"/>
   </g>
   <g id="text_42">
    <!-- 'main_cat' Value Counts -->
    <g style="fill:#262626;" transform="translate(280.798437 18.119531)scale(0.15 -0.15)">
     <defs>
      <path d="M 6.640625 46.234375 
L 4.390625 59.625 
L 4.390625 71.578125 
L 14.40625 71.578125 
L 14.40625 59.625 
L 12.0625 46.234375 
z
" id="ArialMT-39"/>
      <path d="M -1.515625 -19.875 
L -1.515625 -13.53125 
L 56.734375 -13.53125 
L 56.734375 -19.875 
z
" id="ArialMT-95"/>
      <path d="M 28.171875 0 
L 0.4375 71.578125 
L 10.6875 71.578125 
L 29.296875 19.578125 
Q 31.546875 13.328125 33.0625 7.859375 
Q 34.71875 13.71875 36.921875 19.578125 
L 56.25 71.578125 
L 65.921875 71.578125 
L 37.890625 0 
z
" id="ArialMT-86"/>
     </defs>
     <use xlink:href="#ArialMT-39"/>
     <use x="19.091797" xlink:href="#ArialMT-109"/>
     <use x="102.392578" xlink:href="#ArialMT-97"/>
     <use x="158.007812" xlink:href="#ArialMT-105"/>
     <use x="180.224609" xlink:href="#ArialMT-110"/>
     <use x="235.839844" xlink:href="#ArialMT-95"/>
     <use x="291.455078" xlink:href="#ArialMT-99"/>
     <use x="341.455078" xlink:href="#ArialMT-97"/>
     <use x="397.070312" xlink:href="#ArialMT-116"/>
     <use x="424.853516" xlink:href="#ArialMT-39"/>
     <use x="443.945312" xlink:href="#ArialMT-32"/>
     <use x="471.728516" xlink:href="#ArialMT-86"/>
     <use x="531.052734" xlink:href="#ArialMT-97"/>
     <use x="586.667969" xlink:href="#ArialMT-108"/>
     <use x="608.884766" xlink:href="#ArialMT-117"/>
     <use x="664.5" xlink:href="#ArialMT-101"/>
     <use x="720.115234" xlink:href="#ArialMT-32"/>
     <use x="747.898438" xlink:href="#ArialMT-67"/>
     <use x="820.115234" xlink:href="#ArialMT-111"/>
     <use x="875.730469" xlink:href="#ArialMT-117"/>
     <use x="931.345703" xlink:href="#ArialMT-110"/>
     <use x="986.960938" xlink:href="#ArialMT-116"/>
     <use x="1014.744141" xlink:href="#ArialMT-115"/>
    </g>
   </g>
  </g>
 </g>
 <defs>
  <clipPath id="p6c7bc4d2b2">
   <rect height="543.6" width="334.8" x="193.25" y="23.119531"/>
  </clipPath>
 </defs>
</svg>
